HIERARCHY
ROOT Hips
{
	OFFSET	0.00	0.00	0.00
	CHANNELS 6 Xposition Yposition Zposition Zrotation Xrotation Yrotation
	JOINT LeftUpLeg
	{
		OFFSET	 0.126116	-0.014019	-0.065224
		CHANNELS 3 Zrotation Xrotation Yrotation
		JOINT LeftLeg
		{
			OFFSET	 0.000000	 0.000000	 0.569914
			CHANNELS 3 Zrotation Xrotation Yrotation
			JOINT LeftFoot
			{
				OFFSET	 0.000000	 0.000000	 0.544423
				CHANNELS 3 Zrotation Xrotation Yrotation
				JOINT LeftToeBase
				{
					OFFSET	 0.000000	 0.000000	 0.207117
					CHANNELS 3 Zrotation Xrotation Yrotation
					End Site
					{
						OFFSET	 0.000000	 0.000000	 0.207117
					}
				}
			}
		}
	}
	JOINT RightUpLeg
	{
		OFFSET	-0.124023	-0.008373	-0.065224
		CHANNELS 3 Zrotation Xrotation Yrotation
		JOINT RightLeg
		{
			OFFSET	 0.000000	 0.000000	 0.570047
			CHANNELS 3 Zrotation Xrotation Yrotation
			JOINT RightFoot
			{
				OFFSET	 0.000000	 0.000000	 0.544354
				CHANNELS 3 Zrotation Xrotation Yrotation
				JOINT RightToeBase
				{
					OFFSET	 0.000000	 0.000000	 0.207540
					CHANNELS 3 Zrotation Xrotation Yrotation
					End Site
					{
						OFFSET	 0.000000	 0.000000	 0.207540
					}
				}
			}
		}
	}
	JOINT Spine
	{
		OFFSET	 0.000184	-0.007763	 0.117403
		CHANNELS 3 Zrotation Xrotation Yrotation
		JOINT Spine1
		{
			OFFSET	 0.000000	 0.000000	 0.137269
			CHANNELS 3 Zrotation Xrotation Yrotation
			JOINT Spine2
			{
				OFFSET	 0.000000	 0.000000	 0.156879
				CHANNELS 3 Zrotation Xrotation Yrotation
				JOINT LeftShoulder
				{
					OFFSET	 0.080501	-0.002496	 0.160144
					CHANNELS 3 Zrotation Xrotation Yrotation
					JOINT LeftArm
					{
						OFFSET	 0.000000	 0.000000	 0.164363
						CHANNELS 3 Zrotation Xrotation Yrotation
						JOINT LeftForeArm
						{
							OFFSET	 0.000000	 0.000000	 0.364576
							CHANNELS 3 Zrotation Xrotation Yrotation
							JOINT LeftHand
							{
								OFFSET	 0.000000	 0.000000	 0.360812
								CHANNELS 3 Zrotation Xrotation Yrotation
								JOINT LeftHandIndex1
								{
									OFFSET	 0.000000	 0.000000	 0.086006
									CHANNELS 3 Zrotation Xrotation Yrotation
									JOINT LeftHandIndex2
									{
										OFFSET	 0.000000	 0.000000	 0.047236
										CHANNELS 3 Zrotation Xrotation Yrotation
										JOINT LeftHandIndex3
										{
											OFFSET	-0.004284	-0.000551	 0.038166
											CHANNELS 3 Zrotation Xrotation Yrotation
											End Site
											{
												OFFSET	-0.004284	-0.000551	 0.038166
											}
										}
									}
								}
							}
						}
					}
				}
				JOINT Neck
				{
					OFFSET	 0.000000	 0.000000	 0.176489
					CHANNELS 3 Zrotation Xrotation Yrotation
					JOINT Head
					{
						OFFSET	 0.000000	-0.001747	 0.077940
						CHANNELS 3 Zrotation Xrotation Yrotation
						End Site
						{
							OFFSET	 0.000000	-0.001747	 0.077940
						}
					}
				}
				JOINT RightShoulder
				{
					OFFSET	-0.080363	 0.000306	 0.159706
					CHANNELS 3 Zrotation Xrotation Yrotation
					JOINT RightArm
					{
						OFFSET	 0.000000	 0.000000	 0.164196
						CHANNELS 3 Zrotation Xrotation Yrotation
						JOINT RightForeArm
						{
							OFFSET	 0.000000	 0.000000	 0.365611
							CHANNELS 3 Zrotation Xrotation Yrotation
							JOINT RightHand
							{
								OFFSET	 0.000000	 0.000000	 0.360648
								CHANNELS 3 Zrotation Xrotation Yrotation
								JOINT RightHandIndex1
								{
									OFFSET	 0.000000	 0.000000	 0.069977
									CHANNELS 3 Zrotation Xrotation Yrotation
									JOINT RightHandIndex2
									{
										OFFSET	 0.000000	 0.000000	 0.052305
										CHANNELS 3 Zrotation Xrotation Yrotation
										JOINT RightHandIndex3
										{
											OFFSET	 0.009002	-0.000782	 0.042196
											CHANNELS 3 Zrotation Xrotation Yrotation
											End Site
											{
												OFFSET	 0.009002	-0.000782	 0.042196
											}
										}
									}
								}
							}
						}
					}
				}
			}
		}
	}
}
MOTION
Frames:    10
Frame Time: 0.03333334
-11.737530	-24.173100	-0.579125	-60.475590	 1.732306	 0.473564	 2.276799	-34.044740	 172.417300	-5.594849	-67.308520	-5.967124	 176.804200	 87.180120	-179.525200	-2.334805	 36.332340	-0.181347	 0.033289	-35.553530	-177.539000	 1.607829	-71.528140	 4.335766	-177.550000	 85.693610	 179.279600	 2.405427	 20.986810	-0.153448	 26.719140	 14.315330	 1.154958	 1.063265	 7.510152	-1.977835	 1.562614	 4.586840	 0.040858	-131.545800	 89.488710	-136.860200	 48.339360	 61.196170	-76.832240	-39.039240	 14.175800	-30.746690	 1.126531	-2.230539	-5.359125	-3.812334	 37.924440	-2.927599	-2.450526	 36.184240	 0.754587	-1.378229	 35.397820	-2.634230	 1.667201	 2.395963	-3.114675	 1.036708	 7.764148	 3.094294	 94.086770	 85.978580	 171.276000	-54.078520	 70.646370	 73.277660	 18.245040	 5.687676	 36.224230	-27.498360	-3.210777	 9.538381	 6.437017	 35.671460	-0.771858	 2.830251	 35.756010	-7.813440	-2.350882	 35.473990	 5.254307
-11.731050	-24.174740	-0.557046	-62.147310	 4.610598	-0.044864	 2.914640	-35.349980	 173.073400	-4.354311	-64.157750	-4.102757	 173.866300	 88.518930	-176.055400	-2.355665	 33.706000	-0.118130	 1.105771	-37.065330	-177.303300	 0.469821	-67.871890	 3.874822	-175.287700	 87.008270	 177.122200	 2.406666	 19.852170	-0.176038	 31.230830	 14.352350	 1.144738	 1.109838	 7.154648	-1.839921	 1.855283	 4.206299	 0.054684	-121.247600	 89.355020	-147.205200	 44.945840	 60.941370	-74.823840	-36.516610	 10.846200	-28.506280	 1.465230	-2.258975	-5.354302	-3.812334	 37.924440	-2.927599	-2.450526	 36.184240	 0.754587	-1.378229	 35.397820	-2.634230	 1.990966	 2.060586	-2.940211	 1.327951	 7.389767	 4.167238	 94.393200	 86.055630	 170.792700	-53.983150	 71.464250	 72.552670	 15.826030	 2.668685	 33.665430	-27.771570	-3.217791	 9.526511	 6.437017	 35.671460	-0.771858	 2.830251	 35.756010	-7.813440	-2.350882	 35.473990	 5.254307
-11.726940	-24.177240	-0.540605	-63.696180	 6.480477	-0.591830	 3.917775	-35.646490	 173.842000	-4.138356	-61.517730	-3.035689	 156.263800	 89.594100	-158.091200	-2.366509	 32.086620	-0.080652	 1.877939	-38.246030	-176.697100	-1.563649	-65.586030	 2.415064	-170.748000	 88.356220	 172.065900	 2.407123	 19.237880	-0.188186	 34.976450	 14.912360	 1.392187	 1.257651	 7.187586	-1.669726	 2.084761	 4.000014	 0.065209	-118.352600	 89.300580	-150.130100	 42.371720	 60.835430	-74.338400	-33.370430	 7.498335	-26.061470	 2.275390	-2.293189	-5.344158	-3.812334	 37.924440	-2.927599	-2.450526	 36.184240	 0.754587	-1.378229	 35.397820	-2.634230	 2.253404	 1.859090	-2.812228	 1.528119	 7.181083	 4.713120	 94.552760	 86.109520	 170.571700	-53.483480	 72.396430	 71.377140	 12.564930	-0.409900	 30.420010	-28.490770	-3.230404	 9.498823	 6.437017	 35.671460	-0.771858	 2.830251	 35.756010	-7.813440	-2.350882	 35.473990	 5.254307
-11.725720	-24.178210	-0.528448	-63.935960	 7.885328	-0.675236	 4.440658	-36.104260	 174.090400	-3.536501	-59.463230	-2.028441	 31.273190	 89.692260	-32.641530	-2.369152	 31.655320	-0.070845	 1.482854	-38.487370	-176.584800	-2.329638	-63.380130	 1.335935	-163.692600	 89.068120	 164.567800	 2.406931	 19.519140	-0.182630	 37.370200	 15.162910	 1.255021	 1.025013	 7.384035	-1.743468	 2.089866	 4.032987	 0.064771	-119.670700	 89.368820	-149.015700	 40.884940	 61.154850	-75.227330	-29.776910	 4.228402	-23.190760	 3.217150	-2.329443	-5.330273	-3.812334	 37.924440	-2.927599	-2.450526	 36.184240	 0.754587	-1.378229	 35.397820	-2.634230	 2.162758	 2.008182	-2.706542	 1.670829	 7.080739	 4.458674	 94.649120	 86.112840	 170.388200	-51.755300	 73.717060	 68.702380	 8.495271	-3.372488	 26.258900	-29.554830	-3.247446	 9.457060	 6.437017	 35.671460	-0.771858	 2.830251	 35.756010	-7.813440	-2.350882	 35.473990	 5.254307
-11.728070	-24.178890	-0.519679	-63.384350	 8.789933	-0.677388	 4.404974	-36.267850	 174.119100	-2.797917	-58.149000	-1.365160	 13.683940	 89.327690	-14.698580	-2.371015	 31.342810	-0.063775	 0.860442	-38.400910	-176.671300	-1.390355	-61.928160	 1.675634	-156.592000	 89.354420	 157.687300	 2.405327	 21.067840	-0.151828	 38.406580	 15.203920	 1.260192	 0.681558	 7.427552	-2.040731	 1.980211	 4.043582	 0.061184	-140.317900	 89.618970	-128.550700	 41.318850	 61.110530	-77.249460	-25.150680	 1.505048	-21.261480	 3.337459	-2.323775	-5.330344	-3.812334	 37.924440	-2.927599	-2.450526	 36.184240	 0.754587	-1.378229	 35.397820	-2.634230	 1.902999	 2.001332	-2.980751	 1.729210	 7.116737	 4.064598	 94.274480	 85.832370	 170.638500	-48.595060	 75.449360	 64.328550	 3.766720	-6.149725	 21.871690	-30.639090	-3.260567	 9.414749	 6.437017	 35.671460	-0.771858	 2.830251	 35.756010	-7.813440	-2.350882	 35.473990	 5.254307
-11.733320	-24.180190	-0.514765	-62.709420	 9.275936	-0.707472	 4.182610	-36.249870	 174.145300	-2.285820	-57.315810	-1.060475	 10.217510	 89.082290	-11.062500	-2.374896	 30.658110	-0.048412	 0.800531	-38.186040	-176.848000	-0.192410	-61.181180	 2.671478	-153.036300	 89.436640	 154.708500	 2.400590	 23.649520	-0.099596	 37.985850	 14.930130	 1.394123	 0.417602	 7.322353	-2.177739	 1.881888	 3.940519	 0.059842	 177.038900	 89.722340	-86.042240	 43.591180	 60.639170	-79.707530	-19.987700	-0.596948	-20.405850	 2.887922	-2.279231	-5.341580	-3.812334	 37.924440	-2.927599	-2.450526	 36.184240	 0.754587	-1.378229	 35.397820	-2.634230	 1.686389	 1.925873	-3.144006	 1.774002	 7.005561	 3.546363	 94.011800	 85.622340	 170.817900	-46.554260	 76.479080	 61.061990	-1.091768	-8.205146	 18.129160	-30.977730	-3.264633	 9.401932	 6.437017	 35.671460	-0.771858	 2.830251	 35.756010	-7.813440	-2.350882	 35.473990	 5.254307
-11.741770	-24.182960	-0.511614	-61.971170	 9.461439	-0.783199	 3.976299	-35.757960	 174.263800	-1.984342	-56.609690	-0.948488	 9.054206	 89.005540	-9.847073	-2.374263	 30.772850	-0.050981	 0.829394	-37.416630	-176.957000	 0.577492	-60.669780	 3.371337	-165.299000	 89.035510	 167.416700	 2.398850	 24.346970	-0.085277	 35.831020	 14.565840	 1.639056	 0.255915	 7.178707	-2.213795	 1.798350	 3.806921	 0.059282	 143.909300	 89.671950	-53.021400	 46.616990	 59.764660	-82.635600	-13.199440	-2.873603	-19.241600	 2.403927	-2.238255	-5.350798	-3.812334	 37.924440	-2.927599	-2.450526	 36.184240	 0.754587	-1.378229	 35.397820	-2.634230	 1.536509	 1.817642	-3.444129	 1.758108	 6.871148	 3.436902	 93.795690	 85.482090	 171.042400	-46.241520	 76.951420	 59.471840	-7.592957	-10.141880	 14.468200	-30.998390	-3.265502	 9.398993	 6.437017	 35.671460	-0.771858	 2.830251	 35.756010	-7.813440	-2.350882	 35.473990	 5.254307
-11.748380	-24.185330	-0.510734	-61.089510	 9.526240	-0.624230	 3.706733	-35.536800	 174.147000	-1.504483	-56.252830	-0.728725	 10.381270	 89.183390	-11.047410	-2.374557	 30.720430	-0.049810	 0.415546	-36.951540	-177.146600	 0.985475	-60.314970	 3.432832	-169.497400	 88.771710	 171.687700	 2.399461	 24.111490	-0.090118	 32.690830	 14.238480	 1.475433	 0.089479	 7.203089	-2.250854	 1.713438	 3.843229	 0.055938	 142.252600	 89.679180	-51.485340	 48.727430	 59.326600	-84.362540	-7.403373	-4.995510	-21.815280	 2.637297	-2.230386	-5.350597	-3.812334	 37.924440	-2.927599	-2.450526	 36.184240	 0.754587	-1.378229	 35.397820	-2.634230	 1.406658	 1.796453	-3.485498	 1.728397	 6.962443	 3.377517	 93.870650	 85.544430	 170.987000	-47.680390	 76.757930	 60.394660	-13.399380	-11.752960	 15.954370	-31.162860	-3.265511	 9.395771	 6.437017	 35.671460	-0.771858	 2.830251	 35.756010	-7.813440	-2.350882	 35.473990	 5.254307
-11.755220	-24.187920	-0.510866	-60.366150	 9.478200	-0.524654	 3.585241	-35.104380	 174.056700	-0.978488	-56.055500	-0.383527	 14.990930	 89.481490	-15.443590	-2.374902	 30.658820	-0.048428	-0.055620	-36.415270	-177.219200	 1.375598	-60.088880	 3.439445	-172.101600	 88.535000	 174.320100	 2.399851	 23.955020	-0.093337	 28.111430	 13.962960	 1.553839	 0.059370	 7.267812	-2.277839	 1.630114	 3.928704	 0.052001	 136.996400	 89.661380	-46.273880	 50.933850	 59.009430	-86.129370	-1.516301	-7.642392	-23.860950	 2.794225	-2.232703	-5.349348	-3.812334	 37.924440	-2.927599	-2.450526	 36.184240	 0.754587	-1.378229	 35.397820	-2.634230	 1.296855	 1.736527	-3.535163	 1.657055	 7.183647	 3.058966	 93.835470	 85.566500	 171.102800	-50.086170	 76.140260	 62.649240	-19.372330	-13.892160	 17.597180	-30.854370	-3.264284	 9.405408	 6.437017	 35.671460	-0.771858	 2.830251	 35.756010	-7.813440	-2.350882	 35.473990	 5.254307
-11.761690	-24.189930	-0.511916	-59.668060	 9.374073	-0.377393	 3.481900	-34.839920	 173.958300	-0.489726	-56.086750	-0.057879	 30.287600	 89.759340	-30.533120	-2.371630	 31.238330	-0.061418	-0.430422	-35.909210	-177.361000	 1.924125	-60.044380	 3.661666	-173.522500	 88.322170	 175.877600	 2.400391	 23.731330	-0.097925	 22.082320	 13.754590	 1.661309	 0.061536	 7.363821	-2.312075	 1.556256	 4.046080	 0.048050	 126.439300	 89.588840	-35.747090	 52.967630	 58.481350	-87.253940	 4.756050	-10.612650	-25.272210	 2.997750	-2.239791	-5.346972	-3.812334	 37.924440	-2.927599	-2.450526	 36.184240	 0.754587	-1.378229	 35.397820	-2.634230	 1.204010	 1.728992	-3.629435	 1.578701	 7.413942	 2.685404	 93.713520	 85.547550	 171.337800	-52.049240	 75.462420	 64.790290	-24.907280	-16.581950	 19.204850	-30.296530	-3.260091	 9.421302	 6.437017	 35.671460	-0.771858	 2.830251	 35.756010	-7.813440	-2.350882	 35.473990	 5.254307
